<svg width="800" height="600" xmlns="http://www.w3.org/2000/svg">
 <g id="Layer_1">
  <title>Layer 1</title>
  <path id="svg_1" d="m76.35502,335.91499l0,-142.87499l0,0c0,-61.37264 43.48434,-111.125 97.12501,-111.125l0,0l0,0c25.75915,0 50.46327,11.70778 68.67776,32.54776c18.21448,20.83998 28.44724,49.10506 28.44724,78.57724l0,15.875l27.74998,0l-55.49997,63.50002l-55.50002,-63.50002l27.75,0l0,-15.875c0,-26.30255 -18.63616,-47.62499 -41.62499,-47.62499l0,0l0,0c-22.98886,0 -41.62501,21.32243 -41.62501,47.62499l0,142.87499l-55.50001,0z" stroke="#000" fill="#33666C"/>
  <path stroke="#000" id="svg_2" d="m557.05678,142.5148c-39.12305,0 -71.03029,32.07397 -71.03029,71.38333s31.90723,71.38333 71.03029,71.38333c39.12305,0 71.03029,-32.07397 71.03029,-71.38333s-31.90723,-71.38333 -71.03029,-71.38333zm180.16444,71.04509c-5.01438,-26.75037 -14.51317,-44.88297 -23.4684,-58.75081c0.67946,1.89708 1.22302,3.80888 1.8753,5.70596c-31.79852,-93.45717 -159.04696,-144.11963 -257.337,-79.85404c-0.76099,3.97064 -0.99201,7.91187 -0.99201,11.82369c0,-0.75001 -0.08153,-1.4412 -0.05436,-2.20591c-23.68582,-1.97062 -52.37244,30.30924 -77.8792,89.45711c-12.95042,33.48575 -17.63867,70.14802 -5.62589,113.13391c7.01198,25.08858 18.04634,50.82423 33.95919,70.79509c47.16781,59.2214 119.42111,83.3835 161.493,71.10392c0.05436,0.01471 0.1223,0.04412 0.19025,0.05882c81.11341,-1.83826 142.60414,-62.17732 164.76798,-140.72252c7.97681,-28.35333 8.49319,-51.55953 3.07114,-80.54522zm-319.23541,140.50193c-13.04555,-16.35317 -23.84889,-38.98583 -31.24137,-65.47149c-9.96082,-35.58872 -8.31654,-68.38329 5.15027,-103.16318c13.67065,-31.6622 27.01515,-52.47131 38.49795,-64.98619c2.03837,10.91191 7.07993,23.94151 15.12468,38.95642c2.96243,5.57361 6.2374,10.30897 9.40367,14.88256c2.43245,3.48534 4.83772,6.97068 6.97121,10.72074c1.68505,2.97063 3.2478,6.54421 4.81055,10.83838c-3.2478,40.50056 12.12149,75.55986 42.77852,98.22194l-34.59788,33.08869l-2.745,2.51474c-2.82654,2.51474 -6.07433,5.48537 -8.84651,8.66188c-18.48119,21.23559 -3.39728,41.63292 3.88649,51.44188l0.92406,1.27943c3.22062,4.36771 6.97121,9.11777 11.07513,13.79431c-21.51156,-11.29427 -43.09107,-28.05921 -61.19177,-50.78011zm303.18667,-64.26559c-21.74258,76.94223 -80.67856,127.94293 -150.43146,130.2812c-33.76894,-8.57365 -59.2757,-26.17683 -75.90878,-52.30954c0.05436,-0.05882 0.13589,-0.11765 0.20384,-0.19118l67.18457,-56.41254c30.24936,-1.82355 52.37244,-13.059 65.86642,-33.50046c16.60589,-20.76499 24.35169,-44.48591 23.00637,-71.48628c24.69142,5.54419 46.0535,13.27959 65.97514,27.69156l1.57634,1.14707l1.82094,0.63236c2.1199,0.7206 4.22621,1.11766 6.2374,1.19119c1.48121,18.23554 -0.28537,34.30929 -5.53077,52.95661zm3.46522,-68.13329c-26.51236,-19.20615 -55.19897,-27.45626 -89.6066,-33.6034c7.21582,34.67695 -1.14149,59.88318 -18.01916,81.05994c-11.9856,18.16201 -32.36926,26.79449 -59.71056,27.57391l-70.93516,59.58905c-6.75379,6.01479 -8.03116,12.04428 -3.83213,18.07378c11.53716,18.77967 26.2134,32.3828 42.42521,42.32411c-0.17666,0 -0.35332,0.02941 -0.52998,0.04412c-0.01359,-0.01471 -0.05436,-0.02941 -0.08153,-0.05882c-0.27178,0.04412 -0.55715,0.05882 -0.84252,0.07353c-1.08713,0.01471 -2.17426,-0.01471 -3.2478,-0.14706c-2.1199,-0.30883 -4.26698,-0.94119 -6.2374,-1.73532c-12.20302,-4.89713 -25.68342,-19.88263 -35.29092,-32.92692c-7.89527,-10.73544 -16.38847,-21.07382 -5.58512,-33.45634c3.50599,-4.01476 7.90886,-7.55893 10.72181,-10.26485l34.25815,-32.77986c2.33733,-2.01473 4.75619,-4.07359 7.27017,-6.22067c0.72022,-0.61766 1.45403,-1.23531 2.20144,-1.86767c7.66426,-6.50009 6.56354,-4.70595 -1.46762,-9.44131c-32.87206,-19.41203 -49.96716,-53.14779 -45.57788,-93.95717c-2.02478,-6.02949 -4.30775,-11.64722 -7.03916,-16.52964c-4.93285,-8.82365 -11.33332,-16.20611 -16.2254,-25.33858c-12.2302,-22.88267 -25.09909,-57.38314 0.17666,-54.1478c-0.06795,-0.77942 -0.02718,-1.61767 -0.06795,-2.4118c1.27738,29.42687 20.73698,56.22136 23.67223,71.88334c1.05995,5.61772 3.9952,10.36779 8.31654,4.1177c34.48917,-49.92716 82.47232,-44.89768 113.17012,-19.29438c6.01998,5.00007 9.29495,11.10309 14.7306,16.32375c2.09272,2.02944 4.45723,3.80888 7.27017,5.16184c10.09671,4.88242 24.55552,4.5883 35.42681,6.38244c18.63067,3.05887 36.78572,6.82362 53.96236,11.94134c3.39728,0.44118 5.76178,-0.05882 7.07993,-1.48531c2.8673,-3.05887 -0.02718,-13.0443 -1.64428,-18.57378c3.76418,11.8384 7.28376,23.66209 10.50438,35.51519c2.45963,9.23542 1.8753,16.69141 -5.2454,14.17667z" fill="#C48157"/>
  <rect stroke-width="6" stroke="#000" id="svg_5" height="538" width="740.99996" y="22" x="34.00004" fill="none"/>
 </g>

</svg>